<svg width="46" height="46" viewBox="0 0 46 46" fill="none" xmlns="http://www.w3.org/2000/svg">
<path d="M43.0729 13.322L38.4657 29.9036C38.2124 30.8094 37.6706 31.6079 36.9225 32.1779C36.1744 32.748 35.2608 33.0586 34.3203 33.0625H16.56C15.6167 33.0621 14.6994 32.7531 13.9481 32.1828C13.1967 31.6125 12.6525 30.812 12.3984 29.9036L6.095 7.1875H2.875C2.49375 7.1875 2.12812 7.03605 1.85853 6.76647C1.58895 6.49688 1.4375 6.13125 1.4375 5.75C1.4375 5.36875 1.58895 5.00312 1.85853 4.73353C2.12812 4.46395 2.49375 4.3125 2.875 4.3125H7.1875C7.50178 4.31244 7.80741 4.41537 8.05762 4.60555C8.30783 4.79572 8.48882 5.06265 8.57289 5.36547L10.2763 11.5H41.6875C41.9091 11.5 42.1277 11.5512 42.3263 11.6496C42.5248 11.748 42.6979 11.891 42.8321 12.0674C42.9662 12.2438 43.0577 12.4489 43.0995 12.6665C43.1413 12.8841 43.1322 13.1085 43.0729 13.322ZM15.8125 35.9375C15.2439 35.9375 14.688 36.1061 14.2152 36.422C13.7424 36.7379 13.3739 37.1869 13.1563 37.7123C12.9387 38.2376 12.8818 38.8157 12.9927 39.3734C13.1037 39.9311 13.3775 40.4434 13.7796 40.8454C14.1816 41.2475 14.6939 41.5213 15.2516 41.6323C15.8093 41.7432 16.3874 41.6863 16.9127 41.4687C17.4381 41.2511 17.8871 40.8826 18.203 40.4098C18.5189 39.937 18.6875 39.3811 18.6875 38.8125C18.6875 38.05 18.3846 37.3187 17.8454 36.7796C17.3063 36.2404 16.575 35.9375 15.8125 35.9375ZM34.5 35.9375C33.9314 35.9375 33.3755 36.1061 32.9027 36.422C32.4299 36.7379 32.0614 37.1869 31.8438 37.7123C31.6262 38.2376 31.5693 38.8157 31.6802 39.3734C31.7912 39.9311 32.065 40.4434 32.4671 40.8454C32.8691 41.2475 33.3814 41.5213 33.9391 41.6323C34.4968 41.7432 35.0749 41.6863 35.6002 41.4687C36.1256 41.2511 36.5746 40.8826 36.8905 40.4098C37.2064 39.937 37.375 39.3811 37.375 38.8125C37.375 38.05 37.0721 37.3187 36.5329 36.7796C35.9938 36.2404 35.2625 35.9375 34.5 35.9375Z" fill="#DADADA" fill-opacity="0.8"/>
</svg>
